<?xml version="1.0" encoding="UTF-8"?>
<!-- Generated by Pixelmator Pro 3.5.1 -->
<svg width="478" height="412" viewBox="0 0 478 412" xmlns="http://www.w3.org/2000/svg">
    <g id="Group">
        <path id="GOST" fill="#ffffff" fill-rule="evenodd" stroke="none" d="M 394.929993 5.200012 L 394.929993 51.119995 L 408.705994 51.119995 L 408.705994 407 L 463.809998 407 L 463.809998 51.119995 L 477.585999 51.119995 L 477.585999 5.200012 Z M 323.179993 361.080017 L 323.179993 241.688004 L 268.075989 241.688004 L 268.075989 351.321991 C 268.075989 392.649994 287.018005 411.59201 327.772003 411.59201 C 368.526001 411.59201 387.467987 392.649994 387.467987 351.321991 L 387.467987 256.037994 C 387.467987 188.880005 323.179993 175.677994 323.179993 143.533997 L 323.179993 50.54599 L 332.364014 50.54599 L 332.364014 150.996002 L 387.467987 150.996002 L 387.467987 60.877991 C 387.467987 19.549988 368.526001 0.608002 327.772003 0.608002 C 287.018005 0.608002 268.075989 19.549988 268.075989 60.877991 L 268.075989 142.959991 C 268.075989 206.100006 332.364014 218.154007 332.364014 249.149994 L 332.364014 361.080017 Z M 196.326004 0.608002 C 155.572006 0.608002 136.630005 19.549988 136.630005 59.730011 L 136.630005 352.470001 C 136.630005 392.649994 155.572006 411.59201 196.326004 411.59201 C 237.080002 411.59201 256.022003 392.649994 256.022003 352.470001 L 256.022003 59.730011 C 256.022003 19.549988 237.080002 0.608002 196.326004 0.608002 Z M 200.917999 361.080017 L 191.733994 361.080017 L 191.733994 51.119995 L 200.917999 51.119995 Z M 124.575996 173.955994 L 124.575996 59.730011 C 124.575996 19.549988 105.634003 0.608002 62.584 0.608002 C 19.534 0.608002 0.592 19.549988 0.592 59.730011 L 0.592 352.470001 C 0.592 392.649994 19.534 411.59201 62.584 411.59201 C 105.634003 411.59201 124.575996 392.649994 124.575996 352.470001 L 124.575996 183.139999 L 62.584 183.139999 L 62.584 229.059998 L 69.472 229.059998 L 69.472 361.080017 L 55.695999 361.080017 L 55.695999 51.119995 L 69.472 51.119995 L 69.472 173.955994 Z"/>
    </g>
</svg>
