<?xml version="1.0" standalone="no"?>
<!DOCTYPE svg PUBLIC "-//W3C//DTD SVG 20010904//EN"
 "http://www.w3.org/TR/2001/REC-SVG-20010904/DTD/svg10.dtd">
<svg version="1.0" xmlns="http://www.w3.org/2000/svg"
 width="500.000000pt" height="500.000000pt" viewBox="0 0 500.000000 500.000000"
 preserveAspectRatio="xMidYMid meet">
<metadata>
Created by potrace 1.14, written by Peter Selinger 2001-2017
</metadata>
<g transform="translate(0.000000,500.000000) scale(0.100000,-0.100000)"
fill="#000000" stroke="none">
<path d="M2405 4801 c-89 -15 -200 -49 -291 -91 -88 -41 -169 -85 -524 -288
-102 -59 -223 -127 -270 -152 -47 -25 -119 -66 -160 -91 -41 -25 -140 -84
-220 -132 -138 -82 -306 -210 -377 -287 -55 -59 -144 -215 -174 -305 -62 -183
-61 -164 -69 -1190 -9 -1155 -1 -1605 29 -1718 27 -102 54 -161 97 -214 111
-136 309 -180 467 -105 128 61 180 128 277 357 60 142 68 154 134 221 94 94
161 126 271 132 126 7 217 -25 308 -107 59 -53 92 -108 167 -277 78 -174 112
-228 176 -273 148 -107 301 -118 457 -33 88 48 134 110 227 313 79 173 89 188
155 255 94 95 150 118 290 119 97 0 104 -2 177 -38 122 -60 167 -117 262 -330
85 -191 131 -256 224 -315 152 -98 364 -74 491 57 86 88 126 203 142 401 12
162 11 2241 -1 2415 -11 153 -47 317 -87 403 -38 80 -135 222 -184 268 -145
136 -312 243 -819 528 -41 23 -145 82 -230 131 -337 192 -399 225 -492 264
-168 72 -332 101 -453 82z"/>
</g>
</svg>
