<?xml version="1.0" standalone="no"?>
<!DOCTYPE svg PUBLIC "-//W3C//DTD SVG 20010904//EN"
 "http://www.w3.org/TR/2001/REC-SVG-20010904/DTD/svg10.dtd">
<svg version="1.0" xmlns="http://www.w3.org/2000/svg"
 width="500.000000pt" height="500.000000pt" viewBox="0 0 500.000000 500.000000"
 preserveAspectRatio="xMidYMid meet">
<metadata>
Created by potrace 1.14, written by Peter Selinger 2001-2017
</metadata>
<g transform="translate(0.000000,500.000000) scale(0.100000,-0.100000)"
fill="#000000" stroke="none">
<path d="M2395 4799 c-79 -15 -91 -18 -145 -34 -30 -9 -65 -23 -77 -31 -13 -8
-23 -12 -23 -9 0 8 -188 -89 -270 -139 -36 -22 -87 -50 -115 -63 -27 -13 -63
-33 -80 -43 -16 -10 -41 -25 -55 -33 -56 -32 -132 -75 -231 -131 -57 -32 -147
-84 -199 -115 -52 -31 -106 -62 -120 -70 -60 -33 -160 -92 -236 -140 -57 -35
-218 -164 -269 -215 -33 -33 -91 -118 -131 -193 -35 -65 -78 -173 -68 -173 3
0 0 -8 -5 -18 -21 -39 -40 -162 -48 -315 -8 -138 -7 -2262 0 -2362 4 -44 9
-91 12 -105 3 -14 8 -41 12 -60 9 -43 8 -41 18 -65 47 -120 85 -174 164 -228
25 -17 48 -32 51 -33 25 -4 67 -18 75 -24 16 -13 204 -5 217 8 7 7 20 12 29
12 9 0 41 18 70 40 29 22 56 41 59 42 15 8 82 99 96 134 9 21 32 72 50 112 19
41 34 76 34 79 0 10 59 127 73 143 20 26 130 114 162 131 40 22 123 41 177 41
111 -1 208 -42 292 -126 57 -57 84 -100 141 -231 69 -155 109 -228 148 -269
25 -25 47 -46 51 -46 4 0 23 -11 44 -24 96 -61 235 -73 345 -28 16 7 31 12 34
12 12 0 108 74 132 102 38 45 59 85 165 320 55 122 114 188 217 246 67 37 183
52 263 35 142 -32 256 -131 320 -278 70 -161 118 -260 128 -266 5 -3 10 -10
10 -15 -1 -10 52 -68 89 -99 27 -23 98 -58 147 -74 42 -13 187 -8 232 9 94 35
197 131 234 220 16 40 42 138 50 190 15 104 19 359 18 1286 0 1231 -3 1300
-54 1494 -33 125 -132 302 -217 387 -76 75 -247 201 -389 284 -79 46 -155 91
-170 100 -101 59 -223 129 -227 129 -4 0 -341 193 -385 220 -8 5 -29 16 -47
24 -18 8 -66 35 -107 60 -42 25 -80 46 -85 46 -5 0 -14 7 -21 15 -6 8 -15 14
-18 13 -4 -1 -34 11 -67 26 -182 85 -370 121 -500 95z"/>
</g>
</svg>
